<svg xmlns="http://www.w3.org/2000/svg" viewBox="0 0 191.84 183.12"><defs><style>.cls-1,.cls-2{fill:none;}.cls-1,.cls-3{stroke:#000;stroke-width:2px;}.cls-2{stroke:#3871ce;stroke-width:9px;}</style></defs><g id="Warstwa_2" data-name="Warstwa 2"><g id="Warstwa_1-2" data-name="Warstwa 1"><polygon class="cls-1" points="113.95 166.67 61.95 137.33 38.95 17.67 66.28 47 162.28 47 190.28 17.67 169.28 136.33 113.95 166.67"/><polygon class="cls-1" points="89.67 89.99 80.55 102.54 65.78 97.75 65.78 82.22 80.55 77.43 89.67 89.99"/><polygon class="cls-2" points="160.45 82.22 160.45 97.75 145.69 102.54 136.56 89.99 145.69 77.43 160.45 82.22"/><polygon class="cls-1" points="160.45 82.22 160.45 97.75 145.69 102.54 136.56 89.99 145.69 77.43 160.45 82.22"/><path d="M76.47,87.22c-3.57,0-3.57,5.53,0,5.53S80,87.22,76.47,87.22Z"/><path d="M149.77,87.22c-3.57,0-3.57,5.53,0,5.53S153.33,87.22,149.77,87.22Z"/><line class="cls-1" x1="43.61" y1="123.28" x2="0.11" y2="128.28"/><line class="cls-1" x1="46.95" y1="139.44" x2="23.28" y2="152.11"/><line class="cls-1" x1="57.28" y1="150.61" x2="28.45" y2="182.44"/><polyline class="cls-1" points="61.95 137.33 101.45 101.11 114.61 119.22 128.11 101.11 169.28 136.33"/><line class="cls-1" x1="114.61" y1="118.11" x2="114.61" y2="47"/><rect class="cls-3" x="24.39" y="23.56" width="2.78" height="2.78"/><rect x="20.61" y="1.56" width="3.78" height="9.56"/><rect x="17.28" y="4.22" width="11.17" height="3.56"/><rect x="48.17" width="4.22" height="4.22"/><rect x="59.06" y="13.33" width="2.89" height="10.22"/><rect x="55.06" y="16.44" width="10.73" height="3.33"/><path class="cls-1" d="M103.32,141.36c8.71-4,13.74-4.17,22.59,0"/></g></g></svg>