<?xml version="1.0" encoding="UTF-8" standalone="no"?>
<svg
   xmlns:dc="http://purl.org/dc/elements/1.1/"
   xmlns:cc="http://creativecommons.org/ns#"
   xmlns:rdf="http://www.w3.org/1999/02/22-rdf-syntax-ns#"
   xmlns:svg="http://www.w3.org/2000/svg"
   xmlns="http://www.w3.org/2000/svg"
   xmlns:sodipodi="http://sodipodi.sourceforge.net/DTD/sodipodi-0.dtd"
   xmlns:inkscape="http://www.inkscape.org/namespaces/inkscape"
   viewBox="0 0 191.84 183.12"
   version="1.1"
   id="svg44"
   sodipodi:docname="patronage-cat.svg"
   inkscape:version="1.0.2 (1.0.2+r75+1)">
  <metadata
     id="metadata48">
    <rdf:RDF>
      <cc:Work
         rdf:about="">
        <dc:format>image/svg+xml</dc:format>
        <dc:type
           rdf:resource="http://purl.org/dc/dcmitype/StillImage" />
        <dc:title></dc:title>
      </cc:Work>
    </rdf:RDF>
  </metadata>
  <sodipodi:namedview
     pagecolor="#ffffff"
     bordercolor="#666666"
     borderopacity="1"
     objecttolerance="10"
     gridtolerance="10"
     guidetolerance="10"
     inkscape:pageopacity="0"
     inkscape:pageshadow="2"
     inkscape:window-width="1853"
     inkscape:window-height="1025"
     id="namedview46"
     showgrid="false"
     inkscape:zoom="3.1322093"
     inkscape:cx="103.6619"
     inkscape:cy="106.79723"
     inkscape:window-x="67"
     inkscape:window-y="27"
     inkscape:window-maximized="1"
     inkscape:current-layer="svg44" />
  <defs
     id="defs4">
    <style
       id="style2">.cls-1,.cls-2{fill:none;}.cls-1,.cls-3{stroke:#000;stroke-width:2px;}.cls-2{stroke:#3871ce;stroke-width:9px;}</style>
  </defs>
  <g
     id="g928">
    <polygon
       class="cls-1"
       points="162.28,47 190.28,17.67 169.28,136.33 113.95,166.67 61.95,137.33 38.95,17.67 66.28,47 "
       id="polygon6" />
    <polygon
       class="cls-1"
       points="80.55,77.43 89.67,89.99 80.55,102.54 65.78,97.75 65.78,82.22 "
       id="polygon8" />
    <polygon
       class="cls-2"
       points="145.69,77.43 160.45,82.22 160.45,97.75 145.69,102.54 136.56,89.99 "
       id="polygon10"
       style="stroke:#cb4173;stroke-opacity:1" />
    <polygon
       class="cls-1"
       points="145.69,77.43 160.45,82.22 160.45,97.75 145.69,102.54 136.56,89.99 "
       id="polygon12"
       style="stroke:#ac113b;stroke-opacity:1" />
    <path
       d="m 76.47,87.22 c -3.57,0 -3.57,5.53 0,5.53 3.57,0 3.53,-5.53 0,-5.53 z"
       id="path14" />
    <path
       d="m 149.77,87.22 c -3.57,0 -3.57,5.53 0,5.53 3.57,0 3.56,-5.53 0,-5.53 z"
       id="path16" />
    <line
       class="cls-1"
       x1="43.610001"
       y1="123.28"
       x2="0.11"
       y2="128.28"
       id="line18" />
    <line
       class="cls-1"
       x1="46.950001"
       y1="139.44"
       x2="23.280001"
       y2="152.11"
       id="line20" />
    <line
       class="cls-1"
       x1="57.279999"
       y1="150.61"
       x2="28.450001"
       y2="182.44"
       id="line22" />
    <polyline
       class="cls-1"
       points="61.95 137.33 101.45 101.11 114.61 119.22 128.11 101.11 169.28 136.33"
       id="polyline24" />
    <line
       class="cls-1"
       x1="114.61"
       y1="118.11"
       x2="114.61"
       y2="47"
       id="line26" />
    <rect
       class="cls-3"
       x="24.389999"
       y="23.559999"
       width="2.78"
       height="2.78"
       id="rect28" />
    <rect
       x="20.610001"
       y="1.5599999"
       width="3.78"
       height="9.5600004"
       id="rect30" />
    <rect
       x="17.280001"
       y="4.2199998"
       width="11.17"
       height="3.5599999"
       id="rect32" />
    <rect
       x="48.169998"
       width="4.2199998"
       height="4.2199998"
       id="rect34"
       y="0" />
    <rect
       x="59.060001"
       y="13.33"
       width="2.8900001"
       height="10.22"
       id="rect36" />
    <rect
       x="55.060001"
       y="16.440001"
       width="10.73"
       height="3.3299999"
       id="rect38" />
    <path
       class="cls-1"
       d="m 132.43699,132.52638 c -4.12503,6.11464 -6.82604,11.41548 -19.9296,6.01987"
       id="path40"
       sodipodi:nodetypes="cc" />
  </g>
</svg>
